<?xml version="1.0" encoding="utf-8"?>
<!-- Generator: Adobe Illustrator 28.1.0, SVG Export Plug-In . SVG Version: 6.00 Build 0)  -->
<svg version="1.1" id="Layer_1" xmlns="http://www.w3.org/2000/svg" xmlns:xlink="http://www.w3.org/1999/xlink" x="0px" y="0px"
	 viewBox="0 0 1000 1000" style="enable-background:new 0 0 1000 1000;" xml:space="preserve">
<style type="text/css">
	.st0{fill:none;stroke:#2B2523;stroke-width:0.5;stroke-miterlimit:2.613;}
	.st1{fill:#2B2422;}
	.st2{fill:#FFFFFF;}
</style>
<g>
</g>
<line class="st0" x1="13889.63" y1="-287.41" x2="13901.2" y2="-287.41"/>
<line class="st0" x1="13884.96" y1="-204.1" x2="13884.96" y2="-215.67"/>
<g>
	<path class="st1" d="M650.78,725.55H349.22c-21.54,0-39.06-17.52-39.06-39.06V313.51c0-21.54,17.52-39.06,39.06-39.06h301.56
		c21.54,0,39.06,17.52,39.06,39.06V686.5C689.84,708.03,672.32,725.55,650.78,725.55L650.78,725.55z M349.22,279.6
		c-18.7,0-33.91,15.21-33.91,33.91V686.5c0,18.7,15.21,33.91,33.91,33.91h301.56c18.7,0,33.91-15.21,33.91-33.91V313.51
		c0-18.7-15.21-33.91-33.91-33.91H349.22L349.22,279.6z"/>
	<path class="st1" d="M687.26,650.9v-337.4c0-20.15-16.33-36.48-36.48-36.48H349.22c-20.15,0-36.48,16.33-36.48,36.48v337.4H687.26z
		"/>
	<path class="st2" d="M379.15,382.51c0,0-0.01-18.52,0.08-21.1c0.21-6.14,4.61-10.76,10.77-11.93c7.16-1.36,14.37,2.69,16.36,3.75
		l7.76-15.34c0,0-13.04-8.18-32.81-5.8c-8.68,1.05-12.67,3.1-18.92,9.04c-1.99,1.89-5.45,8.67-6.37,11.65
		c-0.46,1.47-0.96,7.85-0.96,10.17c0,2.32-0.17,20.06-0.17,20.06h-10.34v16.1h10.34v7.18v88.05h24.25v-75.91l0,0v-6.14v-13.66h22.61
		l6.76-16.1h-29.37V382.51z"/>
	<path class="st2" d="M638.33,402.31c-5.02,1.27-13.09,7.07-14.66,15.17c-0.76,3.93-0.41,14.4-0.41,17.04l-0.07,60.14h-24.4l0.11-84
		c-0.78-12.5-2.18-22.28-4.55-25.39l22.5-6.31c3.6,2.25,4.6,18.29,4.6,18.29c5.22-6.63,11.84-14.81,20.29-16.92
		c8.1-2.03,14.18-1.12,16.66,0.68l-7.46,22.66C647.57,402.09,643.06,401.09,638.33,402.31z"/>
	<path class="st2" d="M540.44,494.26l-0.32-109.95l25.08-4.66l0.16,114.61H540.44z"/>
	<path class="st2" d="M586.01,558.42c0,0,0-10.59,0.04-11.92c0.11-3.16,2.38-5.55,5.56-6.15c3.69-0.7,7.95,1.34,8.97,1.89l3.46-6.38
		c0,0-13.51-9.13-25.07,1.67c-1.03,0.97-2.81,4.47-3.28,6.01c-0.24,0.75-0.5,4.04-0.5,5.24c0,1.2-0.09,9.89-0.09,9.89h-5.33v7.34
		h5.33v3.71v46.81h10.91v-39.14l0,0v-3.16v-8.46h11.66l3.48-7.34h-15.14V558.42z"/>
	<path class="st2" d="M366,558.42c0,0,0-10.59,0.05-11.92c0.11-3.16,2.38-5.55,5.55-6.15c3.69-0.7,7.95,1.34,8.97,1.89l3.46-6.38
		c0,0-13.51-9.13-25.07,1.67c-1.03,0.97-2.81,4.47-3.28,6.01c-0.24,0.75-0.5,4.04-0.5,5.24c0,1.2-0.09,9.89-0.09,9.89h-5.33v7.34
		h5.33v3.71v46.81H366v-39.14l0,0v-3.16v-8.46h11.66l3.48-7.34H366V558.42z"/>
	<path class="st2" d="M468.51,568.1c-2.59,0.65-6.8,4.63-7.6,8.8c-0.39,2.02-0.21,7.43-0.21,8.79l-0.04,31h-10.32l0.06-43.31
		c-0.4-6.45-1.12-11.49-2.34-13.09l9.34-3.25c1.86,1.16,2.37,9.43,2.37,9.43c2.69-3.42,6.11-7.64,10.46-8.73
		c4.18-1.04,7.31-0.58,8.59,0.35l-2.69,10.07C474.37,567.36,470.95,567.48,468.51,568.1z"/>
	<path class="st2" d="M544.89,616.49l-0.17-57.72l11.09-1.38l0.08,59.1H544.89z"/>
	<path class="st2" d="M506.54,473.26c-0.42-1.15-0.88-5.25-0.88-6.65l0.24-52.53c0-3.74,0.9-14.44-3.45-20.33
		c-4.6-6.22-9.93-10.36-16.89-12.75c-2.85-0.52-5.61-0.91-8.26-1.17c-2.65-0.26-5.22-0.39-7.71-0.39c-0.94,0-2.06,0.05-3.39,0.15
		c-1.33,0.11-2.33,0.13-3,0.08c-6.55,0.47-11.16,1.82-18.28,3.84c-7.01,1.93-17.51,7.93-21.86,11.12l10.61,17.38
		c16.87-11.76,28.05-12.52,34.34-12.73c0.05,0.05,0.5,0.13,1.32,0.08c9.85-0.64,12.12,9.05,12.43,10.09
		c0.31,1.04,0.48,4.27,0.48,5.3l0.13,10.3c0,0-31.57-2.56-48.45,9.84c-1.81,1.33-5.01,4.2-6.52,5.75
		c-5.77,6.03-8.02,15.31-7.8,24.29c0.9,35.79,35.4,32.72,40.91,32.72c10.7,0,20.32-5.75,27.39-13.79
		c2.27,6.76,7.85,13.38,15.43,15.2l12.14-15.59C514.29,483.01,507.95,477.09,506.54,473.26z M481.78,464.71
		c-0.74,4.02-2.21,7.05-4.42,9.09c-1.52,1.46-3.07,2.6-4.65,3.41c-1.58,0.81-3.28,1.45-5.11,1.92c-5.81,1.57-12.48,1.02-17.55-3.69
		c-2.13-1.98-6.09-10.38-2.69-20.84c3.71-11.38,17.03-12.54,20.46-13.03c3.42-0.5,10.41-0.14,13.97-0.26V464.71z"/>
	<path class="st2" d="M539.14,364.98c0,0,0-18.23,5.2-29.94c5.21-11.72,16.28-24.09,33.2-28.65c16.93-4.56,23.46-9.93,23.46-9.93
		s1.93,32.06-5.89,45.08C587.31,354.57,569.08,364.98,539.14,364.98z"/>
	<path class="st2" d="M532.62,616.29c-4.72,0.98-8.89,1.15-11.76,0.13c-2.88-1.02-5.63-4.54-5.88-7.35
		c-0.12-1.3-0.34-5.14-0.34-6.53c0,0,0.01-57.84,0.01-60.58c0-2.75-0.6-7.37-0.6-7.37l10.83-2.02l0.76,71.28
		c0,0.38,0.02,0.79,0.06,1.23c0.04,0.43,0.12,0.9,0.25,1.39c0.28,1.08,0.75,1.87,1.4,2.39c0.66,0.51,2.05,0.74,3.15,0.79
		L532.62,616.29z"/>
	<path class="st2" d="M428.14,565.42c-2.38-2.86-8.62-8.29-18.43-8.24c-3.38,0.01-7.94,0.93-11.02,2.49
		c-3.08,1.55-5.44,3.72-7.78,6.59c-2.43,2.9-3.34,5.36-4.6,9.04c-1.26,3.68-1.84,8.33-1.84,12.5c0,4.15,0.59,8.09,1.67,11.85
		c1.13,3.88,3.26,7.58,5.69,10.48c2.34,2.87,4.7,4.53,7.78,6.09c3.08,1.56,7.67,1.86,11.04,1.86c3.33,0,6.61-0.56,9.71-2.12
		c3.09-1.56,5.37-3.04,7.78-5.91c2.39-2.9,3.69-5.8,4.94-9.47c1.24-3.67,1.84-8.57,1.84-12.77
		C434.92,578.35,432.99,571.25,428.14,565.42z M420.16,603.14c-1.72,3.28-4.24,6.51-10.74,6.51c-3.99,0-8.2-2.19-10.12-5.75
		c-1.76-3.27-2.82-12.33-2.82-16.8c0-4.97,1-13.64,3.12-16.79c2.4-3.56,5.92-5.15,9.84-5.15c3.84,0,7.46,1.74,9.68,4.46
		c3.12,3.84,3.44,12.97,3.44,17.34C422.56,591.38,422,599.64,420.16,603.14z"/>
	<path class="st2" d="M645.62,603.48c-9.85,11.05-23.86,4.78-27.1-1.52c-1.66-3.23-2.36-7.52-2.09-12.32l35.37,0
		c0-9.4-1.26-19.48-6.63-25.62c-2.44-2.79-7.99-6.77-15.61-6.83c-3.37-0.03-7.93,0.93-11.02,2.47c-3.08,1.55-5.43,3.7-7.78,6.55
		c-2.43,2.88-3.34,5.33-4.6,8.99c-1.26,3.66-1.84,8.28-1.84,12.42c0,4.13,0.58,8.05,1.67,11.77c1.13,3.86,3.27,7.53,5.69,10.42
		c2.34,2.85,4.7,4.5,7.78,6.05c3.09,1.55,8.12,1.99,11.5,1.89c10.51-0.3,16.47-5.11,18.88-7.96L645.62,603.48z M616.6,581.91
		c0.43-4.46,1.36-9.39,2.85-11.6c2.4-3.56,5.92-5.15,9.84-5.15c2.84,0,9.54,1.8,11.47,16.75H616.6z"/>
	<path class="st2" d="M558.06,540.75c0,4.23-3.43,7.67-7.67,7.67c-4.23,0-7.67-3.43-7.67-7.67c0-4.24,3.43-7.67,7.67-7.67
		C554.63,533.08,558.06,536.51,558.06,540.75z"/>
	<g>
		<path class="st1" d="M471.76,680.97c-0.94,0.25-4.32,2.94-4.61,4.52c-0.14,0.77-0.08,2.81-0.08,3.33l-0.01,11.74l-3.08-0.08
			l0.02-16.39c-0.14-2.44-0.41-4.35-0.85-4.95l2.9-0.83c0.67,0.44,0.88,4.59,0.88,4.59c0.98-1.29,3.5-4.32,5.08-4.73
			c1.52-0.39,2.65-0.22,3.11,0.13l-1.01,2.94C473.49,680.93,472.65,680.73,471.76,680.97z"/>
		<path class="st1" d="M515.82,680.97c-0.94,0.25-4.32,2.94-4.61,4.52c-0.14,0.77-0.08,2.81-0.08,3.33l-0.01,11.74l-3.08-0.08
			l0.02-16.39c-0.14-2.44-0.41-4.35-0.85-4.95l2.9-0.83c0.67,0.44,0.88,4.59,0.88,4.59c0.98-1.29,3.5-4.32,5.08-4.73
			c1.52-0.39,2.65-0.22,3.11,0.13l-1.01,2.94C517.55,680.93,516.71,680.73,515.82,680.97z"/>
		<path class="st1" d="M418.6,678.8c0,0,0.08-4.4,0.1-4.9c0.04-1.2,1.4-2.61,2.6-2.84c1.4-0.26,3.37,0.57,3.75,0.77l1.1-1.87
			c0,0-5.11-3.45-9.48,0.63c-0.39,0.36-1.06,1.69-1.24,2.27c-0.09,0.28-0.19,1.53-0.19,1.98c0,0.45-0.01,3.94-0.01,3.94l-2.03,0.03
			l-0.01,2.23l2.02-0.03v1.74v17.69h3.19l0.14-19.49l5.31,0.03l0.93-2.12L418.6,678.8z"/>
		<polygon class="st1" points="494.89,678.82 500.61,678.83 499.74,680.74 495.33,680.74 491.21,680.84 489,680.87 488.92,678.99 
			490.76,678.92 		"/>
		<path class="st1" d="M451.82,700.44l-0.1-21.86l3.08-0.4l-0.05,22.28L451.82,700.44z"/>
		<path class="st1" d="M562.53,700.44l0.03-32.08l2.77,0.6l-0.09,31.48L562.53,700.44z"/>
		<path class="st1" d="M442.73,697.66c-0.08-0.22-0.16-2.38-0.16-2.65l0.04-10.25c0-0.73,0.16-2.82-0.63-3.97
			c-0.84-1.21-1.81-2.02-3.08-2.49c-1.61-0.45-3.24-0.32-3.48-0.31c-0.24,0.01-0.42,0.05-0.59,0.05c-1.2,0.09-2.04,0.36-3.33,0.75
			c-1.27,0.37-3.19,1.55-3.98,2.17l1.43,2.53c3.07-2.3,5.55-2.31,6.7-2.35c0.01,0.01,0.1,0.02,0.24,0.02c1.8,0,2.98,1.2,3.21,2.7
			c0.03,0.21,0.08,0.84,0.08,1.04l0.03,2.01c0,0-6.63-0.5-9.7,1.92c-0.33,0.26-0.91,0.82-1.19,1.12c-1.05,1.18-1.46,2.99-1.42,4.74
			c0.16,6.99,6.45,6.39,7.45,6.39c1.95,0,3.7-1.12,4.99-2.69c0.41,1.32,1.43,2.61,2.81,2.97l1.71-2.14
			C443.65,699.11,442.99,698.41,442.73,697.66z M439.1,694.64c-0.14,0.78-0.86,1.47-1.27,1.87c-0.28,0.28-0.8,0.62-1.09,0.78
			c-0.29,0.16-0.83,0.43-1.16,0.52c-1.06,0.31-3.55,0.48-4.56-0.89c-0.33-0.44-1.04-2.23-0.41-4.27c0.67-2.22,4.51-2.64,5.13-2.74
			c0.62-0.09,2.77-0.13,3.42-0.16L439.1,694.64z"/>
		<path class="st1" d="M540.14,697.66c-0.08-0.22-0.16-2.38-0.16-2.65l0.04-10.25c0-0.73,0.16-2.82-0.63-3.97
			c-0.84-1.21-1.81-2.02-3.08-2.49c-1.61-0.45-3.24-0.32-3.48-0.31c-0.24,0.01-0.42,0.05-0.59,0.05c-1.2,0.09-2.04,0.36-3.33,0.75
			c-1.27,0.37-3.19,1.55-3.98,2.17l1.43,2.53c3.07-2.3,5.55-2.31,6.7-2.35c0.01,0.01,0.1,0.02,0.24,0.02c1.8,0,2.98,1.2,3.21,2.7
			c0.03,0.21,0.08,0.84,0.08,1.04l0.03,2.01c0,0-6.63-0.5-9.7,1.92c-0.33,0.26-0.91,0.82-1.19,1.12c-1.05,1.18-1.46,2.99-1.42,4.74
			c0.16,6.99,6.45,6.39,7.45,6.39c1.95,0,3.7-1.12,4.99-2.69c0.41,1.32,1.43,2.61,2.81,2.97l1.71-2.14
			C541.05,699.11,540.39,698.41,540.14,697.66z M536.51,694.64c-0.14,0.78-0.86,1.47-1.27,1.87c-0.28,0.28-0.8,0.62-1.09,0.78
			c-0.29,0.16-0.83,0.43-1.16,0.52c-1.06,0.31-3.55,0.48-4.56-0.89c-0.33-0.44-1.03-2.23-0.41-4.27c0.67-2.22,4.51-2.64,5.13-2.74
			c0.62-0.09,2.77-0.13,3.42-0.16L536.51,694.64z"/>
		<path class="st1" d="M500.33,700.37c-1.96,0.37-5.26,0.44-6.45,0.05c-1.2-0.38-1.73-1.82-1.83-2.88
			c-0.05-0.49-0.14-1.95-0.14-2.47c0,0,0.01-18.15,0.01-19.18c0-1.04-0.25-2.79-0.25-2.79l3.47-0.57l0.32,23.23
			c0,0.15,0.01,0.3,0.02,0.47c0.02,0.17,0.13,0.98,0.18,1.17c0.11,0.41,0.31,0.71,0.58,0.9c0.27,0.19,2.84,0.18,3.3,0.2
			L500.33,700.37z"/>
		<path class="st1" d="M563.18,679.59c-1.23-0.84-2.99-1.59-5.24-1.58c-1.28,0.01-3,0.35-4.17,0.94c-1.17,0.59-2.06,1.41-2.94,2.49
			c-0.92,1.1-1.26,2.03-1.74,3.42c-0.47,1.39-0.7,3.15-0.7,4.72c0,1.57,0.22,3.06,0.63,4.48c0.43,1.47,1.23,2.87,2.15,3.96
			c0.88,1.09,1.77,1.71,2.94,2.31c1.17,0.59,2.9,0.7,4.18,0.7c1.26,0,2.5-0.21,3.67-0.8c0.95-0.48,1.69-0.94,2.42-1.66
			 M562.17,696.37c-0.86,0.78-2.35,2.13-4.33,2.13c-1.51,0-3.9-1.25-4.72-2.54c-1.17-1.84-1.37-3.57-1.37-6.28
			c0-3.64,0.8-6.13,1.6-7.33c0.91-1.35,3.11-2.22,4.59-2.22c1.09,0,2.13,0.37,2.94,0.99c0,0,2.05,1.12,2.05,2.79
			C562.93,685.58,563.74,694.96,562.17,696.37z"/>
		<path class="st1" d="M587.56,695.93c-3.72,4.18-10.37,2.86-11.74-0.79c-0.48-1.29-0.81-3.04-0.7-4.86h14.6
			c0-3.55-0.48-7.37-2.51-9.69c-0.92-1.05-3.02-2.56-5.9-2.58c-1.28-0.01-3,0.35-4.17,0.94c-1.17,0.58-2.06,1.4-2.94,2.48
			c-0.92,1.09-1.26,2.01-1.74,3.4c-0.47,1.39-0.7,3.13-0.7,4.7c0,1.56,0.22,3.04,0.63,4.45c0.43,1.46,1.23,2.85,2.15,3.94
			c0.89,1.08,1.77,1.7,2.94,2.29c1.16,0.59,3.07,0.75,4.34,0.72c3.98-0.12,6.23-1.93,7.14-3.01L587.56,695.93z M575.24,687.76
			c0.21-2.82,1.23-4.27,1.79-5.11c0.91-1.35,2.24-1.94,3.72-1.94c1.07,0,5.43,0.58,5.64,7.13L575.24,687.76z"/>
		<path class="st1" d="M455.38,672.61c0,1.18-0.96,2.14-2.14,2.14c-1.18,0-2.14-0.96-2.14-2.14c0-1.18,0.96-2.14,2.14-2.14
			C454.42,670.46,455.38,671.42,455.38,672.61z"/>
	</g>
</g>
</svg>
