<?xml version="1.0" encoding="utf-8"?>
<!-- Generator: Adobe Illustrator 28.1.0, SVG Export Plug-In . SVG Version: 6.00 Build 0)  -->
<svg version="1.1" id="Layer_1" xmlns="http://www.w3.org/2000/svg" xmlns:xlink="http://www.w3.org/1999/xlink" x="0px" y="0px"
	 viewBox="0 0 327.96 327.96" style="enable-background:new 0 0 327.96 327.96;" xml:space="preserve">
<style type="text/css">
	.st0{stroke:#231F20;stroke-width:2;stroke-miterlimit:10;}
	.st1{fill:none;stroke:#231F20;stroke-width:5;stroke-miterlimit:10;}
	.st2{fill:#231F20;stroke:#231F20;stroke-miterlimit:10;}
	.st3{fill:#231F20;}
</style>
<g>
	<g>
		<path class="st0" d="M73.93,179c-4.31-0.02-7.67-3.4-7.64-7.7c0.02-4.24,3.48-7.62,7.77-7.59c4.25,0.03,7.73,3.47,7.68,7.72
			C81.67,175.74,78,179.23,73.93,179z M74.07,176.08c2.85,0.08,4.76-2.34,4.71-4.83c-0.05-2.5-2.18-4.75-4.95-4.62
			c-2.65,0.12-4.61,2.11-4.59,4.78C69.26,174.14,71.3,176.11,74.07,176.08z"/>
		<path class="st0" d="M254.66,179.31c-4.3,0.02-7.75-3.33-7.79-7.58c-0.04-4.29,3.33-7.6,7.63-7.74c3.98-0.13,7.71,3.18,7.82,7.58
			C262.42,175.74,258.88,179.28,254.66,179.31z M254.6,176.37c2.72-0.02,4.84-2.13,4.79-4.78c-0.05-2.58-2.18-4.7-4.74-4.73
			c-2.67-0.03-4.82,2.09-4.83,4.76C249.81,174.35,251.86,176.39,254.6,176.37z"/>
		<path d="M172.6,205.43c-4.69-0.08-8.33-2-10.35-6.33c-2.03-4.36-1.59-8.58,1.44-12.38c1.55-1.95,3.67-3.08,6.08-3.65
			c2.85-0.66,5.61-0.42,8.26,0.88c4.78,2.34,7.13,7.42,5.91,12.77c-1.17,5.12-5.48,8.63-10.71,8.71
			C173.02,205.43,172.81,205.43,172.6,205.43z M178.17,194.2c-0.04-0.52-0.02-1.05-0.12-1.56c-0.41-2.16-1.56-3.73-3.67-4.51
			c-1.97-0.72-3.73-0.24-5.26,1.07c-3.08,2.64-2.54,8.43,0.96,10.48c1.88,1.1,4.17,0.93,5.84-0.51
			C177.44,197.88,178.2,196.21,178.17,194.2z"/>
		<path d="M149.06,182.86c0.88-0.17,1.82-0.29,2.75-0.17c0.93,0.12,1.88,0.24,2.78,0.49c3.28,0.89,4.53,2.86,4.05,6.22
			c-0.1,0.69-0.42,1.06-1.09,1.09c-0.94,0.03-1.89,0.02-2.83,0.03c-0.86,0.01-1.41-0.31-1.45-1.25c-0.04-0.98-0.71-1.34-1.57-1.44
			c-0.41-0.05-0.84-0.05-1.25,0c-0.65,0.07-1.27,0.29-1.43,1.02c-0.15,0.7,0.22,1.22,0.77,1.6c0.69,0.49,1.48,0.77,2.26,1.08
			c1.51,0.59,3.07,1.05,4.45,1.96c1.54,1.01,2.46,2.4,2.72,4.22c0.45,3.09-1.3,5.97-4.33,7.04c-2.7,0.95-5.45,0.99-8.18,0.07
			c-3.29-1.11-4.57-3.19-4.2-6.62c0.08-0.78,0.42-1.14,1.19-1.13c0.84,0.01,1.68-0.02,2.52,0c1.27,0.03,1.27,0.05,1.5,1.28
			c0.24,1.28,0.67,1.71,1.93,1.89c0.68,0.1,1.36,0.1,2.04,0c0.71-0.11,1.35-0.34,1.51-1.15c0.15-0.78-0.27-1.32-0.89-1.69
			c-0.49-0.3-1.02-0.54-1.55-0.76c-0.77-0.32-1.57-0.6-2.35-0.9c-2.71-1.04-4.95-2.53-5.39-5.67
			C142.71,184.23,149.06,182.86,149.06,182.86z"/>
	</g>
	<circle class="st1" cx="163.98" cy="163.98" r="111.7"/>
	<g>
		<path class="st2" d="M75.78,124.57c0.41-0.15,0.77-0.17,1.08-0.05c0.33,0.12,0.55,0.35,0.68,0.67c0.13,0.33,0.13,0.67,0,1.01
			c-0.15,0.41-0.44,0.7-0.89,0.9c-0.79,0.33-1.41,0.77-1.85,1.31c-0.44,0.55-0.81,1.23-1.11,2.04c-0.36,0.98-0.46,1.92-0.31,2.82
			s0.55,1.7,1.17,2.39c0.62,0.7,1.44,1.23,2.45,1.6c1.09,0.4,2.13,0.54,3.11,0.42c0.98-0.12,1.84-0.48,2.57-1.07
			c0.73-0.6,1.28-1.4,1.65-2.39c0.26-0.72,0.35-1.51,0.25-2.38c-0.1-0.87-0.34-1.63-0.72-2.28c-0.31-0.56-0.38-1.06-0.21-1.51
			c0.12-0.33,0.33-0.57,0.64-0.73c0.31-0.16,0.62-0.18,0.95-0.06c0.3,0.11,0.57,0.34,0.81,0.69c0.66,0.95,1.04,2.09,1.14,3.43
			c0.1,1.34-0.06,2.59-0.49,3.76c-0.56,1.53-1.38,2.75-2.46,3.67c-1.08,0.92-2.33,1.48-3.75,1.69c-1.42,0.21-2.91,0.02-4.47-0.55
			c-1.48-0.54-2.67-1.36-3.56-2.45c-0.89-1.09-1.44-2.33-1.63-3.72c-0.2-1.39-0.03-2.8,0.49-4.24
			C72.25,127.04,73.74,125.38,75.78,124.57z"/>
		<path class="st2" d="M84.57,105.89c0.36-0.12,0.7-0.08,1.04,0.14l11.1,7.2c0.35,0.23,0.54,0.53,0.58,0.91
			c0.04,0.38-0.04,0.73-0.25,1.05c-0.21,0.32-0.49,0.54-0.83,0.65s-0.7,0.05-1.07-0.19l-4.31-2.79l-4.05,6.25l4.31,2.79
			c0.36,0.24,0.56,0.53,0.61,0.9c0.04,0.36-0.04,0.7-0.24,1.01c-0.22,0.33-0.51,0.56-0.87,0.67c-0.36,0.11-0.71,0.06-1.06-0.17
			l-11.1-7.2c-0.33-0.22-0.52-0.5-0.57-0.86c-0.05-0.36,0.04-0.7,0.24-1.02c0.22-0.33,0.5-0.56,0.86-0.68
			c0.35-0.12,0.7-0.07,1.03,0.15l4.77,3.09l4.05-6.25l-4.77-3.09c-0.33-0.22-0.52-0.51-0.56-0.87c-0.04-0.36,0.04-0.71,0.25-1.03
			C83.93,106.24,84.22,106.01,84.57,105.89z"/>
		<path class="st2" d="M95.56,93.64l14.73,4.89c0.25,0.06,0.45,0.17,0.61,0.34c0.25,0.25,0.34,0.55,0.28,0.92
			c-0.06,0.36-0.23,0.69-0.52,0.97c-0.18,0.17-0.4,0.3-0.65,0.38c-0.26,0.08-0.51,0.08-0.76,0l-3.67-1.24l-5.71,5.64l1.19,3.69
			c0.09,0.26,0.1,0.51,0.02,0.75c-0.08,0.24-0.21,0.45-0.4,0.64c-0.27,0.27-0.61,0.42-1.01,0.47c-0.4,0.04-0.72-0.06-0.97-0.31
			c-0.09-0.09-0.18-0.24-0.26-0.44l-4.72-14.88c-0.1-0.27-0.12-0.51-0.04-0.73c0.08-0.22,0.24-0.44,0.47-0.67
			C94.61,93.61,95.07,93.48,95.56,93.64z M99.05,102.95l3.97-3.92l-5.89-1.99L99.05,102.95z"/>
		<path class="st2" d="M124.71,89.44c0.19,0.29,0.24,0.62,0.16,0.97c-0.08,0.36-0.27,0.63-0.56,0.81c-0.32,0.21-0.71,0.25-1.15,0.14
			l-6.32-1.63l-3.18,2.02l2.11,3.32c0.21,0.34,0.26,0.68,0.14,1.03c-0.12,0.35-0.34,0.63-0.67,0.84c-0.34,0.21-0.68,0.3-1.04,0.26
			s-0.64-0.23-0.86-0.56l-7.13-11.23c-0.21-0.32-0.26-0.66-0.16-1c0.09-0.34,0.33-0.63,0.69-0.87l4.69-2.98
			c1.22-0.77,2.38-1.23,3.48-1.37c1.1-0.14,2.09,0,2.96,0.41s1.58,1.04,2.12,1.9c0.64,1.01,0.92,2.05,0.85,3.12
			c-0.08,1.07-0.55,2.09-1.41,3.05l4.21,1.05C124.13,88.85,124.49,89.09,124.71,89.44z M115.86,87.5c1.05-0.67,1.71-1.39,1.97-2.17
			c0.26-0.78,0.19-1.5-0.23-2.16c-0.46-0.73-1.13-1.15-2.01-1.26c-0.88-0.11-1.81,0.14-2.79,0.77l-3.49,2.22l3.06,4.82L115.86,87.5z
			"/>
		<path class="st2" d="M136.67,71.32c0.38,0.21,0.63,0.48,0.74,0.79c0.12,0.33,0.1,0.65-0.07,0.96c-0.17,0.31-0.42,0.53-0.77,0.66
			c-0.41,0.15-0.82,0.12-1.26-0.09c-0.76-0.39-1.5-0.57-2.2-0.55c-0.7,0.02-1.46,0.18-2.27,0.48c-0.98,0.36-1.76,0.9-2.34,1.6
			c-0.58,0.7-0.93,1.52-1.06,2.44c-0.13,0.92,0,1.89,0.37,2.91c0.4,1.09,0.97,1.97,1.7,2.64c0.73,0.67,1.55,1.09,2.49,1.26
			s1.89,0.07,2.89-0.3c0.72-0.27,1.37-0.72,1.97-1.36c0.6-0.64,1.02-1.31,1.27-2.03c0.22-0.6,0.56-0.98,1.01-1.15
			c0.33-0.12,0.65-0.12,0.97,0.01c0.32,0.13,0.54,0.36,0.67,0.68c0.11,0.3,0.11,0.65,0,1.06c-0.29,1.12-0.92,2.15-1.87,3.1
			c-0.95,0.95-2.01,1.64-3.18,2.07c-1.53,0.57-2.99,0.74-4.39,0.51c-1.4-0.22-2.64-0.81-3.72-1.76c-1.08-0.95-1.91-2.2-2.48-3.76
			c-0.55-1.48-0.7-2.91-0.45-4.3c0.25-1.39,0.84-2.6,1.77-3.66c0.93-1.05,2.11-1.85,3.54-2.38
			C132.51,70.23,134.73,70.29,136.67,71.32z"/>
		<path class="st2" d="M159.02,77.53c-0.5,1.32-1.32,2.39-2.44,3.23c-1.12,0.84-2.48,1.36-4.08,1.57c-1.6,0.21-3.05,0.06-4.37-0.45
			c-1.32-0.51-2.39-1.34-3.23-2.48c-0.84-1.14-1.36-2.5-1.57-4.1c-0.21-1.6-0.06-3.06,0.45-4.38c0.51-1.33,1.34-2.41,2.47-3.24
			s2.5-1.36,4.1-1.57c1.58-0.21,3.03-0.06,4.33,0.46c1.31,0.51,2.38,1.34,3.21,2.48c0.83,1.14,1.35,2.52,1.56,4.13
			C159.67,74.76,159.53,76.21,159.02,77.53z M154.77,78.74c0.71-0.57,1.23-1.31,1.54-2.2c0.32-0.9,0.4-1.9,0.26-3
			c-0.15-1.1-0.49-2.05-1.03-2.84c-0.54-0.79-1.23-1.37-2.06-1.74c-0.84-0.37-1.76-0.48-2.79-0.35s-1.9,0.49-2.62,1.06
			s-1.25,1.31-1.57,2.22c-0.32,0.91-0.4,1.91-0.25,3.01c0.15,1.1,0.49,2.05,1.03,2.83c0.54,0.78,1.23,1.36,2.09,1.72
			c0.85,0.36,1.79,0.48,2.81,0.34C153.19,79.67,154.06,79.32,154.77,78.74z"/>
		<path class="st2" d="M173.33,66.3l5.82,14.39c0.11,0.23,0.16,0.46,0.14,0.69c-0.03,0.35-0.2,0.62-0.52,0.8
			c-0.32,0.19-0.67,0.27-1.07,0.23c-0.25-0.02-0.49-0.1-0.72-0.25c-0.23-0.14-0.39-0.34-0.49-0.58l-1.44-3.6l-7.99-0.7l-2.04,3.3
			c-0.14,0.24-0.32,0.41-0.56,0.5c-0.23,0.1-0.48,0.13-0.75,0.11c-0.38-0.03-0.72-0.19-1.01-0.46c-0.29-0.28-0.42-0.59-0.39-0.93
			c0.01-0.13,0.07-0.29,0.17-0.49l8.28-13.23c0.14-0.25,0.32-0.42,0.53-0.5c0.22-0.08,0.49-0.11,0.82-0.08
			C172.74,65.55,173.14,65.81,173.33,66.3z M168.5,74.98l5.56,0.48l-2.3-5.78L168.5,74.98z"/>
		<path class="st2" d="M182.59,82.86c-0.17-0.28-0.19-0.64-0.06-1.07l3.79-12.7c0.11-0.38,0.34-0.64,0.68-0.77s0.71-0.14,1.09-0.03
			c0.37,0.11,0.66,0.31,0.87,0.61c0.21,0.3,0.26,0.64,0.15,1.02l-3.46,11.6l7.83,2.34c0.45,0.13,0.76,0.36,0.94,0.67
			s0.23,0.63,0.13,0.95c-0.1,0.33-0.31,0.58-0.63,0.73c-0.32,0.16-0.71,0.17-1.15,0.03l-9.19-2.74
			C183.08,83.36,182.75,83.14,182.59,82.86z"/>
		<path class="st2" d="M211.1,85.81l6.67,4.37c0.35,0.23,0.55,0.5,0.6,0.83c0.06,0.33-0.01,0.63-0.19,0.9
			c-0.17,0.26-0.42,0.43-0.73,0.5c-0.32,0.07-0.65-0.01-0.99-0.23l-6.67-4.37l-2.61,3.98c-0.23,0.35-0.53,0.54-0.89,0.59
			c-0.37,0.05-0.71-0.04-1.03-0.24c-0.32-0.21-0.54-0.5-0.65-0.86c-0.11-0.36-0.06-0.71,0.16-1.04l7.17-10.94
			c0.22-0.33,0.54-0.53,0.97-0.6c0.43-0.06,0.83,0.02,1.19,0.26l8.09,5.3c0.35,0.23,0.55,0.51,0.61,0.83s0,0.63-0.18,0.91
			c-0.18,0.28-0.43,0.45-0.76,0.52c-0.32,0.07-0.66-0.01-1-0.24l-7.04-4.62L211.1,85.81z"/>
		<path class="st2" d="M227.4,108.54c-0.24,0.25-0.55,0.38-0.91,0.38c-0.36,0-0.67-0.12-0.92-0.36c-0.27-0.27-0.41-0.63-0.4-1.09
			l0.13-6.52l-2.69-2.63l-2.75,2.82c-0.28,0.29-0.6,0.41-0.97,0.37c-0.37-0.04-0.69-0.19-0.97-0.46c-0.29-0.28-0.45-0.6-0.5-0.95
			c-0.05-0.36,0.07-0.68,0.35-0.96l9.29-9.53c0.27-0.27,0.58-0.4,0.94-0.39c0.36,0.01,0.69,0.17,1,0.47l3.98,3.88
			c1.03,1.01,1.75,2.03,2.14,3.07c0.39,1.04,0.48,2.03,0.28,2.97c-0.2,0.94-0.65,1.78-1.36,2.5c-0.83,0.86-1.78,1.37-2.84,1.54
			c-1.06,0.17-2.16-0.05-3.29-0.67l-0.05,4.33C227.84,107.84,227.69,108.25,227.4,108.54z M227.26,99.49
			c0.89,0.87,1.75,1.34,2.56,1.42c0.82,0.08,1.5-0.16,2.04-0.72c0.6-0.62,0.86-1.37,0.76-2.25c-0.09-0.88-0.56-1.73-1.39-2.54
			l-2.96-2.89l-3.98,4.09L227.26,99.49z"/>
		<path class="st2" d="M237.71,121.64c-0.08,0.36-0.26,0.63-0.54,0.81s-0.58,0.24-0.9,0.17s-0.61-0.28-0.85-0.64l-5.53-8.2
			c-0.27-0.4-0.37-0.81-0.3-1.23s0.28-0.74,0.62-0.97l10.7-7.21c0.34-0.23,0.72-0.3,1.12-0.2c0.41,0.1,0.74,0.34,1.01,0.74l5.53,8.2
			c0.24,0.36,0.33,0.7,0.26,1.01c-0.07,0.32-0.24,0.57-0.51,0.75c-0.26,0.18-0.57,0.24-0.92,0.18c-0.35-0.06-0.63-0.25-0.86-0.58
			l-4.86-7.21l-3.62,2.44l4.61,6.84c0.22,0.33,0.3,0.66,0.22,0.99c-0.08,0.33-0.25,0.59-0.53,0.78c-0.28,0.19-0.57,0.25-0.89,0.2
			c-0.32-0.06-0.59-0.26-0.83-0.6l-4.61-6.84l-3.43,2.31l4.86,7.21C237.72,120.94,237.79,121.29,237.71,121.64z"/>
		<path class="st2" d="M244.74,137.38c-0.15,0.33-0.38,0.56-0.69,0.69c-0.31,0.13-0.62,0.12-0.92-0.01c-0.31-0.13-0.54-0.4-0.71-0.8
			l-3.76-9.15c-0.18-0.45-0.2-0.87-0.05-1.26s0.42-0.67,0.8-0.83l11.94-4.9c0.38-0.16,0.76-0.15,1.14,0.03
			c0.38,0.18,0.66,0.49,0.84,0.93l3.75,9.15c0.16,0.4,0.18,0.75,0.05,1.04s-0.35,0.51-0.66,0.63c-0.29,0.12-0.6,0.12-0.93-0.01
			c-0.33-0.13-0.57-0.37-0.72-0.74l-3.3-8.04l-4.03,1.66l3.13,7.63c0.15,0.37,0.16,0.71,0.01,1.02c-0.14,0.31-0.37,0.53-0.67,0.65
			s-0.61,0.13-0.91,0.01c-0.3-0.12-0.53-0.37-0.69-0.75l-3.13-7.63l-3.83,1.57l3.3,8.04C244.89,136.69,244.89,137.05,244.74,137.38z
			"/>
		<path class="st2" d="M235.44,228.34c-0.07,0.2-0.17,0.36-0.29,0.5c-0.23,0.26-0.5,0.42-0.81,0.46c-0.3,0.05-0.58-0.04-0.83-0.26
			l-8.74-7.76c-0.24-0.21-0.35-0.46-0.33-0.75c0.02-0.29,0.14-0.55,0.34-0.78c0.21-0.24,0.46-0.39,0.75-0.45
			c0.28-0.06,0.55,0.02,0.79,0.24l6.34,5.63l-0.29-1.47c-0.09-0.4,0-0.75,0.26-1.06c0.19-0.21,0.44-0.32,0.76-0.32
			c0.32,0,0.6,0.1,0.83,0.3c0.16,0.14,0.26,0.31,0.31,0.5l0.99,4.61C235.54,227.94,235.51,228.14,235.44,228.34z"/>
		<path class="st2" d="M229.81,231.21c0.15,0.89,0.06,1.73-0.26,2.53c-0.32,0.8-0.81,1.49-1.47,2.07c-0.66,0.58-1.41,0.99-2.24,1.22
			c-0.84,0.23-1.69,0.21-2.55-0.04c-0.87-0.25-1.66-0.78-2.37-1.58l-2.42-2.73c-0.71-0.81-1.15-1.65-1.3-2.54
			c-0.15-0.89-0.06-1.74,0.27-2.55c0.33-0.81,0.82-1.51,1.48-2.1c0.66-0.58,1.41-0.98,2.24-1.2c0.83-0.22,1.68-0.2,2.54,0.06
			c0.86,0.25,1.65,0.79,2.36,1.59l2.42,2.73C229.23,229.48,229.67,230.33,229.81,231.21z M224.78,234.99
			c0.73,0.02,1.39-0.22,1.96-0.73c0.56-0.49,0.86-1.1,0.93-1.83c0.06-0.73-0.24-1.46-0.91-2.2l-2.42-2.73
			c-0.64-0.72-1.33-1.1-2.08-1.14c-0.75-0.04-1.39,0.18-1.94,0.66c-0.58,0.51-0.9,1.13-0.96,1.86c-0.06,0.73,0.24,1.47,0.91,2.23
			l2.42,2.73C223.35,234.58,224.05,234.96,224.78,234.99z"/>
		<path class="st2" d="M219.34,240.08c0.02,0.9-0.19,1.72-0.62,2.46c-0.43,0.74-1.02,1.36-1.76,1.84s-1.54,0.78-2.4,0.88
			c-0.86,0.1-1.7-0.03-2.52-0.41c-0.82-0.37-1.53-1.01-2.12-1.91l-2-3.05c-0.59-0.9-0.89-1.8-0.91-2.7
			c-0.02-0.9,0.19-1.73,0.63-2.48c0.44-0.76,1.03-1.38,1.77-1.86s1.54-0.77,2.39-0.86c0.86-0.09,1.69,0.05,2.51,0.43
			c0.82,0.38,1.52,1.02,2.11,1.92l2,3.05C219.01,238.28,219.32,239.18,219.34,240.08z M213.8,243.09c0.72,0.13,1.4-0.02,2.05-0.44
			c0.62-0.41,1.02-0.96,1.18-1.68s-0.02-1.48-0.58-2.3l-2-3.05c-0.53-0.81-1.16-1.29-1.89-1.43c-0.73-0.15-1.4-0.02-2.01,0.38
			c-0.64,0.42-1.05,0.99-1.22,1.7c-0.17,0.71,0.02,1.49,0.57,2.33l2,3.05C212.45,242.48,213.08,242.96,213.8,243.09z"/>
		<path class="st2" d="M196.85,246.23c-0.56-0.06-1.06-0.25-1.51-0.57s-0.8-0.75-1.04-1.29c-0.22-0.48-0.31-1.01-0.28-1.57
			c0.03-0.56,0.2-1.08,0.51-1.57s0.75-0.85,1.31-1.11c0.54-0.24,1.08-0.34,1.62-0.28c0.55,0.05,1.04,0.25,1.49,0.58
			c0.45,0.33,0.8,0.79,1.06,1.36c0.22,0.5,0.31,1.02,0.27,1.57c-0.04,0.55-0.22,1.06-0.53,1.53c-0.31,0.47-0.74,0.83-1.29,1.08
			C197.94,246.2,197.4,246.29,196.85,246.23z M196.93,244.09c0.25,0.14,0.49,0.16,0.72,0.06c0.23-0.1,0.38-0.3,0.45-0.58
			c0.07-0.29,0.04-0.58-0.09-0.87c-0.13-0.28-0.32-0.5-0.59-0.67c-0.27-0.16-0.52-0.19-0.76-0.08s-0.39,0.3-0.44,0.58
			s0,0.6,0.14,0.96C196.49,243.75,196.68,243.95,196.93,244.09z M202.28,237.22c0.27-0.12,0.54-0.12,0.83,0
			c0.28,0.12,0.49,0.31,0.61,0.58c0.09,0.2,0.12,0.41,0.09,0.6l-2.94,14.42c-0.05,0.13-0.16,0.23-0.32,0.31
			c-0.29,0.13-0.64,0.16-1.03,0.08c-0.39-0.08-0.64-0.23-0.75-0.46c-0.03-0.06-0.04-0.14-0.04-0.24l2.88-14.49
			C201.71,237.65,201.94,237.38,202.28,237.22z M204.98,250.67c-0.55-0.06-1.05-0.25-1.5-0.58c-0.45-0.33-0.8-0.76-1.04-1.29
			c-0.22-0.5-0.32-1.03-0.29-1.58c0.03-0.56,0.2-1.08,0.5-1.56c0.3-0.48,0.74-0.85,1.3-1.1c0.54-0.24,1.08-0.34,1.62-0.28
			c0.55,0.05,1.05,0.25,1.51,0.59c0.46,0.34,0.82,0.79,1.08,1.37c0.22,0.5,0.31,1.02,0.27,1.57s-0.22,1.06-0.54,1.53
			s-0.75,0.83-1.3,1.08C206.07,250.64,205.53,250.73,204.98,250.67z M205.07,248.52c0.25,0.14,0.48,0.16,0.7,0.07
			c0.24-0.11,0.4-0.3,0.46-0.59c0.07-0.28,0.03-0.57-0.1-0.86c-0.13-0.29-0.33-0.52-0.6-0.69c-0.27-0.16-0.52-0.19-0.76-0.08
			c-0.24,0.11-0.38,0.3-0.43,0.58c-0.04,0.28,0,0.6,0.14,0.97C204.63,248.18,204.82,248.38,205.07,248.52z"/>
		<path class="st2" d="M185.27,247.74c0.05,0.3-0.04,0.57-0.26,0.81c-0.23,0.24-0.52,0.39-0.86,0.45c-0.29,0.05-0.55,0.02-0.78-0.08
			c-0.23-0.1-0.4-0.28-0.5-0.53c-0.31-0.57-0.85-0.92-1.61-1.04c-0.76-0.12-1.57-0.11-2.42,0.03c-0.95,0.16-1.78,0.46-2.5,0.9
			c-0.71,0.44-1.01,1.02-0.88,1.75c0.07,0.4,0.29,0.68,0.67,0.84c0.38,0.16,0.82,0.24,1.33,0.24s1.18-0.04,2-0.11
			c1.23-0.11,2.27-0.14,3.13-0.09c0.86,0.05,1.62,0.29,2.28,0.71c0.66,0.42,1.08,1.13,1.25,2.11c0.15,0.9-0.01,1.7-0.49,2.41
			c-0.48,0.71-1.14,1.28-1.98,1.72c-0.84,0.44-1.72,0.74-2.64,0.9c-1.28,0.22-2.51,0.2-3.68-0.06c-1.17-0.26-2.07-0.87-2.69-1.83
			c-0.05-0.13-0.08-0.23-0.09-0.28c-0.05-0.3,0.03-0.58,0.24-0.82c0.21-0.24,0.48-0.39,0.8-0.45c0.23-0.04,0.46-0.03,0.67,0.04
			s0.37,0.19,0.49,0.35c0.54,0.9,1.83,1.18,3.87,0.82c0.77-0.13,1.5-0.41,2.18-0.83c0.68-0.42,0.96-0.95,0.86-1.58
			c-0.07-0.43-0.29-0.72-0.65-0.89c-0.36-0.17-0.8-0.25-1.32-0.25s-1.21,0.04-2.07,0.13c-1.43,0.1-2.53,0.15-3.29,0.13
			s-1.46-0.23-2.1-0.64c-0.64-0.41-1.04-1.12-1.22-2.14c-0.18-1.02,0-1.9,0.53-2.63c0.53-0.74,1.24-1.32,2.14-1.74
			c0.9-0.42,1.84-0.72,2.82-0.89c0.81-0.14,1.67-0.18,2.56-0.11c0.89,0.07,1.72,0.29,2.48,0.67c0.76,0.38,1.32,0.95,1.68,1.71
			C185.24,247.61,185.26,247.7,185.27,247.74z"/>
		<path class="st2" d="M158.79,259.68c-0.25,0.19-0.54,0.28-0.88,0.28c-0.33-0.01-0.62-0.1-0.86-0.3c-0.23-0.19-0.35-0.46-0.34-0.81
			l0.1-6.38c0.02-1.2,0.3-2.26,0.84-3.18s1.29-1.62,2.25-2.11c0.96-0.5,2.07-0.73,3.33-0.71c1.26,0.02,2.36,0.29,3.3,0.82
			c0.94,0.53,1.67,1.25,2.18,2.19c0.51,0.93,0.75,2,0.74,3.2l-0.1,6.42c-0.01,0.34-0.13,0.59-0.37,0.77
			c-0.24,0.18-0.53,0.26-0.86,0.26c-0.35-0.01-0.65-0.1-0.89-0.29c-0.24-0.19-0.36-0.45-0.35-0.8l0.1-6.4
			c0.02-1.16-0.32-2.11-1-2.84c-0.69-0.73-1.6-1.11-2.75-1.12c-1.16-0.02-2.1,0.33-2.83,1.03c-0.72,0.71-1.1,1.64-1.12,2.8
			l-0.1,6.36C159.17,259.22,159.04,259.49,158.79,259.68z"/>
		<path class="st2" d="M152.51,246.3c0.16,0.22,0.21,0.52,0.14,0.89l-2.13,10.96c-0.06,0.33-0.23,0.56-0.51,0.7
			s-0.58,0.18-0.91,0.11c-0.32-0.06-0.58-0.21-0.78-0.44c-0.2-0.23-0.27-0.51-0.21-0.84l1.95-10.01l-6.76-1.31
			c-0.38-0.07-0.67-0.24-0.85-0.49c-0.18-0.25-0.24-0.51-0.19-0.78c0.06-0.29,0.21-0.51,0.47-0.67c0.26-0.16,0.58-0.2,0.96-0.12
			l7.93,1.54C152.05,245.93,152.35,246.08,152.51,246.3z"/>
		<path class="st2" d="M137.62,243.58c0.12-0.33,0.33-0.53,0.62-0.62s0.59-0.07,0.89,0.04s0.53,0.3,0.69,0.56s0.18,0.54,0.07,0.84
			l-3.92,10.52c-0.11,0.3-0.31,0.51-0.61,0.61c-0.29,0.11-0.6,0.1-0.91-0.01l-4.01-1.5c-1.07-0.4-1.93-0.94-2.56-1.6
			c-0.63-0.67-1.02-1.43-1.17-2.29c-0.15-0.86-0.06-1.74,0.29-2.66c0.33-0.89,0.83-1.59,1.49-2.1c0.66-0.51,1.45-0.8,2.37-0.87
			c0.92-0.07,1.93,0.09,3.02,0.5l2.83,1.05L137.62,243.58z M135.97,248l-2.83-1.06c-0.94-0.35-1.76-0.4-2.45-0.15
			c-0.69,0.25-1.18,0.76-1.46,1.52c-0.3,0.81-0.29,1.56,0.04,2.23s0.96,1.18,1.87,1.53l2.91,1.08L135.97,248z"/>
		<path class="st2" d="M111.6,244.32c-0.12-0.3-0.09-0.59,0.08-0.88l5.62-9.62c0.18-0.3,0.42-0.48,0.74-0.53s0.62,0.01,0.9,0.17
			c0.28,0.16,0.47,0.39,0.58,0.68c0.11,0.29,0.07,0.59-0.12,0.91l-2.18,3.73l5.42,3.17l2.18-3.73c0.18-0.31,0.43-0.5,0.73-0.54
			c0.3-0.05,0.59,0,0.85,0.16c0.29,0.17,0.49,0.4,0.6,0.7c0.11,0.3,0.08,0.6-0.1,0.9l-5.62,9.62c-0.17,0.29-0.4,0.46-0.7,0.51
			s-0.59,0-0.86-0.17c-0.29-0.17-0.49-0.4-0.6-0.69c-0.11-0.29-0.08-0.58,0.08-0.87l2.42-4.13l-5.42-3.17l-2.41,4.13
			c-0.17,0.29-0.41,0.46-0.71,0.51c-0.3,0.05-0.59-0.01-0.87-0.17C111.92,244.84,111.72,244.61,111.6,244.32z"/>
		<path class="st2" d="M98.06,233.55c-0.31-0.01-0.6-0.13-0.85-0.35c-0.25-0.22-0.41-0.48-0.46-0.78s0.03-0.58,0.26-0.84l4.2-4.8
			c0.79-0.91,1.69-1.53,2.69-1.88s2.03-0.4,3.08-0.16c1.05,0.24,2.05,0.78,3,1.61c0.95,0.83,1.61,1.75,1.99,2.76
			c0.38,1.01,0.46,2.04,0.25,3.08s-0.72,2.01-1.51,2.92l-4.23,4.83c-0.22,0.25-0.48,0.37-0.78,0.35c-0.3-0.02-0.57-0.14-0.83-0.36
			c-0.26-0.23-0.43-0.5-0.49-0.79c-0.06-0.3,0.02-0.58,0.25-0.84l4.22-4.81c0.77-0.87,1.12-1.81,1.07-2.81
			c-0.05-1-0.51-1.88-1.37-2.64c-0.87-0.77-1.82-1.11-2.83-1.04c-1.01,0.07-1.9,0.54-2.66,1.42l-4.19,4.78
			C98.64,233.44,98.37,233.57,98.06,233.55z"/>
		<path class="st2" d="M94.51,211.15c0.23-0.18,0.5-0.25,0.8-0.22c0.3,0.04,0.55,0.17,0.73,0.4c0.2,0.25,0.27,0.57,0.21,0.95
			l-0.84,5.43l1.95,2.49l2.61-2.04c0.26-0.21,0.55-0.27,0.85-0.2c0.31,0.07,0.56,0.24,0.76,0.49c0.21,0.26,0.31,0.55,0.31,0.85
			s-0.14,0.56-0.4,0.77l-8.82,6.91c-0.25,0.2-0.53,0.27-0.83,0.22c-0.3-0.05-0.56-0.22-0.78-0.51l-2.89-3.68
			c-0.75-0.96-1.23-1.89-1.44-2.81c-0.21-0.91-0.18-1.75,0.1-2.51c0.27-0.76,0.74-1.41,1.42-1.94c0.79-0.62,1.64-0.94,2.55-0.97
			s1.8,0.29,2.67,0.93l0.53-3.61C94.07,211.68,94.24,211.37,94.51,211.15z M93.63,218.72c-0.65-0.83-1.31-1.32-1.98-1.47
			c-0.67-0.16-1.27-0.03-1.79,0.37c-0.57,0.45-0.87,1.04-0.89,1.79c-0.02,0.74,0.27,1.5,0.88,2.27l2.15,2.74l3.78-2.96L93.63,218.72
			z"/>
	</g>
	<g>
		<path d="M123.58,211.33c-0.74,0.46-1.06,1.15-1.57,1.67c-0.73,0.77-1.59,0.87-2.21,0.3c-0.58-0.53-0.59-1.31,0.04-2.11
			c1-1.28,2.04-2.53,3.08-3.78c0.4-0.49,0.79-0.98,0.9-1.63c0.31-1.79,1.13-3.36,2.06-4.89c4.43-7.3,8.89-14.59,13.27-21.93
			c3.69-6.2,5.59-12.95,5.86-20.17c0.11-2.83,0.22-5.65,0.21-8.48c-0.01-1.42-0.27-2.59-1.57-3.53c-1.4-1.01-2.23-2.58-2.36-4.3
			c-0.2-2.55-0.5-5.15,1.04-7.48c0.46-0.69,0.05-1.17-0.35-1.67c-2.25-2.77-4.48-5.54-6.72-8.31c-4.98-6.15-9.96-12.31-14.93-18.46
			c-0.2-0.24-0.4-0.49-0.54-0.77c-0.39-0.74-0.26-1.38,0.33-1.82c0.57-0.43,1.27-0.41,1.85,0.18c0.62,0.64,1.17,1.34,1.73,2.04
			c6.72,8.32,13.45,16.63,20.14,24.97c0.71,0.88,1.37,1.33,2.53,0.89c0.93-0.35,1.94-0.37,2.95-0.37
			c9.86,0.02,19.71,0.02,29.57,0.02c1.26,0,2.54-0.03,3.73,0.41c0.96,0.35,1.54,0.08,2.14-0.67c2.42-3.03,4.88-6.03,7.33-9.04
			c4.73-5.82,9.46-11.63,14.19-17.45c0.23-0.28,0.47-0.57,0.75-0.8c0.56-0.47,1.16-0.47,1.72-0.02c0.57,0.46,0.66,1.07,0.32,1.69
			c-0.25,0.46-0.58,0.88-0.91,1.28c-6.94,8.54-13.88,17.09-20.86,25.6c-0.85,1.04-0.93,1.78-0.34,3.04c1.35,2.87,1.24,5.9,0.07,8.85
			c-0.45,1.14-1.29,2.04-2.32,2.71c-0.62,0.41-0.94,0.91-0.93,1.69c0.06,3.98-0.12,7.96,0.24,11.94c0.63,6.96,2.71,13.4,6.37,19.36
			c4.2,6.83,8.29,13.73,12.44,20.6c0.98,1.63,1.82,3.31,2.17,5.19c0.13,0.69,0.42,1.28,0.88,1.82c0.77,0.92,1.52,1.87,2.27,2.82
			c0.29,0.37,0.59,0.74,0.8,1.16c0.32,0.64,0.17,1.23-0.4,1.68c-0.52,0.41-1.1,0.38-1.6-0.01c-0.36-0.29-0.65-0.68-0.97-1.02
			c-0.28-0.29-0.43-0.73-0.9-0.81c-0.35,0.15-0.39,0.49-0.47,0.77c-1.41,4.81-5.97,9.23-13.04,9.19
			c-7.76-0.04-15.52,0.15-23.28-0.05c-10.64-0.26-21.28-0.06-31.92-0.15c-2.72-0.02-5.16-0.79-7.36-2.34
			c-2.31-1.63-3.82-3.85-4.78-6.47C124.04,212.24,124.03,211.74,123.58,211.33z M140.22,190.59c-4.17,5.12-8.27,10.3-12.53,15.35
			c-1.33,1.58-1.41,3.16-1.05,4.96c0.06,0.31,0.17,0.61,0.28,0.9c1.59,4.36,5.18,6.91,9.85,6.95c2.88,0.02,5.77,0,8.65,0.01
			c15.57,0.01,31.14,0.03,46.72,0.02c4.87,0,8.68-2.98,9.89-7.66c0.44-1.69,0.3-3.18-0.93-4.68c-6.1-7.41-12.08-14.9-18.11-22.36
			c-5.93-7.34-11.87-14.67-17.81-22c-0.86-1.06-0.9-1.05-1.72-0.05c-5.36,6.59-10.72,13.18-16.07,19.77L140.22,190.59z
			 M133.38,193.96c0.59-0.08,0.73-0.32,0.89-0.52c9.05-11.13,18.1-22.26,27.15-33.4c1.02-1.26,1.02-1.34-0.05-2.66
			c-3.84-4.77-7.69-9.54-11.54-14.3c-1.48-1.83-2.97-3.66-4.46-5.48c-0.19-0.23-0.37-0.58-0.73-0.5c-0.43,0.1-0.49,0.53-0.5,0.88
			c-0.05,1.15-0.07,2.3-0.07,3.45c-0.01,1.74,0.8,3.06,2.33,3.8c1.17,0.56,1.57,1.36,1.55,2.61c-0.06,3.61,0.03,7.23-0.08,10.84
			c-0.15,5.11-1.13,10.08-2.96,14.87c-1.43,3.74-3.48,7.15-5.54,10.55C137.41,187.32,135.46,190.54,133.38,193.96z M154.2,143.57
			c0.2-0.76,0.31-1.44,0.54-2.07c1.16-3.24,4.63-5.13,7.95-4.35c3.46,0.81,5.69,3.97,5.31,7.49c-0.36,3.32-3.2,5.92-6.59,6.04
			c-0.49,0.02-1.02-0.12-1.63,0.2c1.38,1.72,2.7,3.34,3.99,4.97c0.42,0.53,0.76,0.43,1.11-0.06c0.22-0.3,0.47-0.57,0.7-0.85
			c5.02-6.18,10.05-12.35,15.07-18.54c0.35-0.44,1.03-0.9,0.81-1.43c-0.28-0.67-1.12-0.36-1.71-0.36
			c-10.22-0.02-20.43-0.02-30.65-0.03c-0.31,0-0.63-0.01-0.94,0.01c-0.35,0.03-0.8-0.08-0.96,0.35c-0.11,0.32,0.17,0.58,0.35,0.83
			c0.12,0.17,0.25,0.33,0.39,0.5c1.71,2.12,3.42,4.24,5.14,6.35C153.37,142.97,153.58,143.43,154.2,143.57z M170.61,164.27
			c0.21-0.75,0.34-1.2,0.46-1.65c0.76-2.72,3.42-5.1,6.69-4.92c0.73,0.04,1.47,0.04,2.17,0.29c0.58,0.21,0.91,0.01,0.92-0.64
			c0-0.37,0-0.73,0-1.1c0.01-2.83,0.02-5.66,0.01-8.49c0-1.1,0.35-1.91,1.44-2.36c1.06-0.43,1.92-1.21,2.23-2.31
			c0.58-2.04,0.66-4.11-0.14-6.14c-0.03-0.07-0.17-0.09-0.28-0.14c-0.48,0.16-0.68,0.63-0.96,0.98c-3.88,4.75-7.74,9.5-11.61,14.26
			c-1.59,1.95-3.16,3.91-4.76,5.86c-0.4,0.49-0.66,0.9-0.15,1.5C167.92,160.93,169.16,162.48,170.61,164.27z M195.85,195.54
			c0.09-0.07,0.19-0.14,0.28-0.21c-1.75-2.91-3.51-5.82-5.25-8.73c-2.63-4.4-5.47-8.69-7.18-13.58c-0.31-0.89-0.59-1.79-0.88-2.68
			c-0.19-0.6-0.5-0.74-1.03-0.34c-1.35,1.03-2.92,1.37-4.57,1.43c-0.16,0.01-0.3,0.08-0.46,0.48
			C183.07,179.71,189.46,187.63,195.85,195.54z M177.62,168.48c2.13,0.03,3.97-1.54,3.93-3.43c-0.06-2.9-1-4.39-3.78-4.59
			c-2.27-0.17-4.1,1.73-4.1,4.02C173.68,166.72,175.38,168.45,177.62,168.48z M157.25,143.92c0.01,2.19,1.71,4,3.78,4.03
			c2.38,0.03,4.15-1.79,4.1-4.21c-0.04-2.23-1.67-3.88-3.88-3.92C158.94,139.77,157.24,141.51,157.25,143.92z"/>
		<path class="st3" d="M176.58,222.22c-2.77,0-5.56-0.02-8.32-0.09c-6.48-0.16-13.07-0.15-19.44-0.13
			c-4.09,0.01-8.32,0.02-12.48-0.02c-2.85-0.03-5.36-0.82-7.65-2.43c-2.26-1.59-3.89-3.79-4.97-6.71c-0.05-0.13-0.08-0.26-0.12-0.4
			c-0.04-0.15-0.08-0.28-0.13-0.41c-0.22,0.21-0.4,0.45-0.59,0.69c-0.17,0.22-0.33,0.43-0.51,0.62c-0.92,0.96-2.09,1.08-2.91,0.32
			c-0.79-0.73-0.79-1.8-0.02-2.79c0.88-1.13,1.8-2.23,2.71-3.34l0.37-0.45c0.41-0.5,0.71-0.89,0.79-1.39
			c0.33-1.91,1.22-3.57,2.13-5.07l3.29-5.41c3.29-5.41,6.69-10.99,9.98-16.52c3.57-6,5.52-12.7,5.79-19.93l0.02-0.67
			c0.1-2.55,0.19-5.19,0.18-7.79c-0.01-1.33-0.24-2.31-1.36-3.12c-1.48-1.06-2.42-2.77-2.57-4.67l-0.03-0.35
			c-0.2-2.5-0.42-5.08,1.15-7.44c0.22-0.34,0.13-0.52-0.31-1.07c-1.47-1.82-2.93-3.62-4.39-5.43l-17.28-21.36
			c-0.2-0.25-0.43-0.53-0.6-0.85c-0.49-0.94-0.32-1.86,0.47-2.45c0.8-0.6,1.78-0.51,2.5,0.23c0.54,0.55,1.02,1.15,1.49,1.74
			l3.17,3.92c5.75,7.12,11.51,14.24,17.24,21.38c0.7,0.87,1.16,1.04,1.96,0.73c1-0.38,2.06-0.41,3.13-0.41
			c9.86,0.02,19.71,0.02,29.57,0.02h0.23c1.21,0,2.47,0,3.67,0.44c0.69,0.25,1.06,0.13,1.57-0.51c1.73-2.16,3.47-4.3,5.22-6.45
			l16.3-20.04c0.24-0.29,0.5-0.6,0.82-0.87c0.73-0.61,1.61-0.62,2.36-0.02c0.75,0.6,0.91,1.47,0.45,2.32
			c-0.28,0.51-0.64,0.97-0.96,1.35l-3.68,4.53c-5.62,6.92-11.43,14.07-17.19,21.07c-0.72,0.88-0.78,1.42-0.27,2.52
			c1.35,2.87,1.37,5.98,0.09,9.25c-0.46,1.17-1.31,2.16-2.51,2.95c-0.51,0.33-0.71,0.7-0.7,1.26c0.02,1.25,0.02,2.5,0.01,3.75
			c-0.01,2.67-0.02,5.44,0.22,8.15c0.63,7.01,2.69,13.28,6.3,19.15c2.66,4.33,5.32,8.77,7.9,13.05c1.51,2.52,3.02,5.03,4.54,7.55
			c0.83,1.37,1.83,3.22,2.24,5.36c0.11,0.58,0.36,1.1,0.77,1.59c0.78,0.93,1.53,1.88,2.28,2.83l0.06,0.08
			c0.28,0.36,0.58,0.73,0.79,1.16c0.42,0.84,0.22,1.7-0.54,2.3c-0.69,0.54-1.52,0.54-2.21-0.01c-0.28-0.22-0.51-0.49-0.74-0.75
			c-0.1-0.11-0.19-0.22-0.29-0.32c-0.09-0.1-0.18-0.21-0.26-0.32c-0.07-0.1-0.13-0.18-0.18-0.23c-0.02,0.05-0.03,0.11-0.05,0.19
			l-0.04,0.13c-1.3,4.41-5.59,9.55-13.43,9.55c-0.03,0-0.06,0-0.09,0c-2.88-0.01-5.76,0-8.64,0.02
			C180.81,222.21,178.7,222.22,176.58,222.22z M154.36,220.99c4.61,0,9.29,0.03,13.91,0.14c4.87,0.12,9.82,0.09,14.61,0.06
			c2.88-0.02,5.77-0.03,8.65-0.02c0.03,0,0.05,0,0.08,0c7.29,0,11.27-4.75,12.47-8.83l0.03-0.11c0.08-0.28,0.2-0.76,0.72-0.98
			l0.14-0.06l0.15,0.02c0.54,0.09,0.81,0.46,1.01,0.74c0.06,0.08,0.11,0.16,0.17,0.22c0.11,0.12,0.21,0.24,0.32,0.36
			c0.2,0.23,0.39,0.45,0.6,0.61c0.33,0.26,0.65,0.26,0.98,0.01c0.39-0.3,0.47-0.64,0.26-1.06c-0.17-0.34-0.42-0.66-0.68-0.99
			l-0.06-0.08c-0.74-0.95-1.49-1.89-2.26-2.81c-0.52-0.62-0.84-1.29-0.98-2.04c-0.37-1.98-1.32-3.73-2.11-5.03
			c-1.52-2.51-3.03-5.03-4.54-7.55c-2.57-4.29-5.23-8.72-7.89-13.04c-3.64-5.92-5.81-12.51-6.45-19.58
			c-0.25-2.76-0.24-5.55-0.23-8.24c0-1.25,0.01-2.49-0.01-3.74c-0.01-0.9,0.36-1.6,1.16-2.11c1.03-0.67,1.75-1.5,2.13-2.48
			c1.18-3,1.16-5.84-0.06-8.46c-0.68-1.45-0.57-2.39,0.4-3.57c5.75-7,11.56-14.15,17.18-21.07l3.68-4.53
			c0.29-0.35,0.62-0.77,0.86-1.21c0.23-0.42,0.17-0.77-0.2-1.06c-0.37-0.3-0.72-0.3-1.09,0.01c-0.25,0.21-0.48,0.48-0.69,0.73
			l-16.3,20.04c-1.75,2.14-3.49,4.28-5.22,6.44c-0.79,0.98-1.59,1.23-2.7,0.83c-1.03-0.38-2.14-0.37-3.33-0.38h-0.23
			c-9.86,0-19.71-0.01-29.57-0.02c-0.97-0.01-1.93,0.02-2.77,0.34c-1.52,0.58-2.39-0.16-3.1-1.04
			c-5.73-7.14-11.49-14.26-17.24-21.38l-3.17-3.92c-0.45-0.56-0.92-1.15-1.42-1.66c-0.38-0.39-0.79-0.43-1.19-0.13
			c-0.25,0.19-0.54,0.51-0.19,1.19c0.12,0.24,0.31,0.46,0.49,0.69l17.28,21.37c1.46,1.8,2.92,3.61,4.38,5.41
			c0.42,0.52,1.04,1.28,0.38,2.27c-1.37,2.07-1.18,4.37-0.98,6.81l0.03,0.35c0.13,1.61,0.92,3.04,2.16,3.93
			c1.55,1.11,1.77,2.55,1.78,3.93c0.01,2.62-0.09,5.27-0.18,7.83l-0.03,0.67c-0.27,7.4-2.27,14.26-5.93,20.4
			c-3.29,5.53-6.69,11.12-9.98,16.53l-3.29,5.41c-0.86,1.42-1.7,2.97-2,4.72c-0.14,0.81-0.62,1.39-1.01,1.86l-0.37,0.45
			c-0.91,1.1-1.82,2.2-2.69,3.32c-0.31,0.4-0.59,0.98-0.09,1.44c0.59,0.55,1.25-0.01,1.51-0.27c0.16-0.17,0.3-0.35,0.44-0.53
			c0.31-0.41,0.66-0.87,1.23-1.22l0.32-0.2l0.28,0.26c0.44,0.4,0.56,0.86,0.66,1.23c0.03,0.11,0.05,0.21,0.09,0.31
			c1,2.73,2.51,4.76,4.6,6.24c2.12,1.49,4.44,2.23,7.08,2.25c4.15,0.04,8.38,0.03,12.46,0.02C150.65,221,152.5,220.99,154.36,220.99
			z M184.58,219.29c-8.39,0-16.77-0.01-25.16-0.01l-14.02-0.01l-2.88,0c-1.92,0-3.85,0.01-5.77-0.01c-4.88-0.04-8.64-2.7-10.31-7.28
			c-0.11-0.29-0.23-0.63-0.3-0.98c-0.31-1.61-0.42-3.51,1.16-5.38c3-3.55,5.98-7.24,8.85-10.8c1.22-1.51,2.45-3.03,3.67-4.54
			l7.15-8.79c5.35-6.59,10.71-13.18,16.07-19.77c0.46-0.56,0.76-0.94,1.22-0.94c0,0,0,0,0,0c0.47,0,0.79,0.39,1.27,0.98
			c5.94,7.33,11.88,14.67,17.81,22c1.74,2.15,3.48,4.31,5.21,6.46c4.21,5.23,8.56,10.63,12.9,15.9c1.24,1.5,1.56,3.08,1.03,5.12
			c-1.28,4.95-5.25,8.03-10.37,8.04C189.61,219.28,187.1,219.29,184.58,219.29z M145.41,218.26l14.02,0.01
			c10.9,0.01,21.8,0.01,32.7,0.01c4.64,0,8.24-2.79,9.4-7.29c0.44-1.72,0.19-2.99-0.83-4.23c-4.34-5.27-8.69-10.68-12.91-15.91
			c-1.74-2.16-3.47-4.31-5.21-6.46c-5.93-7.34-11.87-14.67-17.81-22c-0.15-0.18-0.36-0.45-0.49-0.57c-0.12,0.11-0.3,0.34-0.45,0.52
			c-5.36,6.59-10.72,13.18-16.07,19.77l-7.15,8.79c-1.23,1.51-2.45,3.02-3.67,4.54c-2.88,3.57-5.86,7.26-8.87,10.82
			c-1.06,1.25-1.33,2.57-0.95,4.54c0.05,0.27,0.16,0.55,0.26,0.83c1.52,4.17,4.94,6.59,9.38,6.63c1.92,0.02,3.84,0.01,5.76,0.01
			L145.41,218.26z M195.76,196.23l-19.58-24.25l0.11-0.27c0.15-0.36,0.38-0.77,0.91-0.79c1.83-0.07,3.19-0.49,4.28-1.32
			c0.39-0.3,0.75-0.39,1.09-0.29c0.5,0.16,0.67,0.7,0.73,0.87l0.13,0.42c0.24,0.75,0.48,1.5,0.74,2.25c1.42,4.08,3.7,7.83,5.9,11.45
			c0.41,0.68,0.83,1.36,1.23,2.04c1.19,1.98,2.38,3.96,3.57,5.94l1.91,3.18L195.76,196.23z M177.41,171.91l15.85,19.63
			c-0.94-1.56-1.88-3.12-2.82-4.69c-0.41-0.68-0.82-1.36-1.23-2.04c-2.23-3.67-4.53-7.45-5.99-11.63c-0.26-0.75-0.51-1.52-0.75-2.28
			l-0.13-0.42c-0.04-0.11-0.07-0.17-0.09-0.21c-0.02,0.02-0.08,0.05-0.17,0.12C180.86,171.33,179.37,171.82,177.41,171.91z
			 M132.41,194.6l2.36-3.9c1.42-2.33,2.79-4.6,4.16-6.86c1.9-3.12,4.05-6.66,5.5-10.47c1.79-4.69,2.77-9.64,2.92-14.71
			c0.06-2.02,0.06-4.08,0.05-6.08c0-1.59-0.01-3.17,0.02-4.76c0.02-1.11-0.32-1.69-1.26-2.15c-1.69-0.81-2.62-2.33-2.61-4.25
			c0-1.16,0.03-2.32,0.07-3.47c0.01-0.29,0.05-1.16,0.89-1.35c0.62-0.14,0.98,0.33,1.15,0.56l0.08,0.11
			c1.49,1.82,2.98,3.65,4.46,5.48c3.85,4.77,7.7,9.53,11.55,14.3c1.21,1.51,1.22,1.85,0.04,3.29c-9.05,11.13-18.1,22.27-27.15,33.4
			c-0.26,0.33-0.53,0.6-1.21,0.7L132.41,194.6z M144.71,137.57c0.02,0.02-0.05,0.03-0.07,0.43c-0.05,1.14-0.07,2.29-0.07,3.43
			c-0.01,1.54,0.7,2.7,2.04,3.35c1.29,0.62,1.85,1.57,1.83,3.06c-0.03,1.58-0.02,3.16-0.02,4.74c0,2,0.01,4.07-0.05,6.11
			c-0.15,5.18-1.16,10.24-2.99,15.04c-1.49,3.89-3.66,7.47-5.58,10.63c-1.19,1.96-2.38,3.92-3.59,5.92
			c8.31-10.21,16.57-20.38,24.84-30.55c0.8-0.98,0.8-0.98-0.05-2.03c-3.84-4.77-7.69-9.54-11.54-14.3
			c-1.48-1.83-2.97-3.66-4.46-5.48l-0.11-0.14C144.83,137.71,144.75,137.6,144.71,137.57z M177.68,168.98c-0.02,0-0.04,0-0.06,0l0,0
			c-2.53-0.03-4.44-1.97-4.44-4.51c0-1.29,0.53-2.53,1.45-3.39c0.87-0.81,2.01-1.22,3.19-1.13c2.91,0.21,4.18,1.73,4.25,5.08
			c0.02,0.95-0.37,1.88-1.09,2.6C180.12,168.49,178.92,168.98,177.68,168.98z M177.63,167.98c1.02-0.01,1.96-0.37,2.62-1.04
			c0.53-0.53,0.82-1.2,0.8-1.88c-0.06-2.82-0.96-3.93-3.32-4.1c-0.89-0.07-1.76,0.24-2.43,0.86c-0.72,0.67-1.13,1.64-1.13,2.65
			C174.18,166.44,175.66,167.95,177.63,167.98L177.63,167.98z M170.83,165.33l-1.86-2.28c-0.94-1.17-1.82-2.25-2.72-3.31
			c-0.82-0.97-0.19-1.73,0.14-2.14c1.03-1.25,2.04-2.51,3.06-3.77l2.18-2.69c3.7-4.56,7.41-9.11,11.12-13.66
			c0.07-0.08,0.13-0.17,0.19-0.26c0.22-0.32,0.49-0.71,1-0.88l0.19-0.06l0.18,0.09c0.19,0.06,0.43,0.14,0.53,0.41
			c0.77,1.97,0.82,4.08,0.15,6.46c-0.33,1.17-1.22,2.1-2.52,2.64c-0.81,0.33-1.13,0.88-1.13,1.89c0.01,2.01,0,4.02-0.01,6.04
			l-0.01,3.56c0,0.48-0.15,0.83-0.45,1.04c-0.3,0.21-0.68,0.23-1.14,0.06c-0.53-0.19-1.09-0.21-1.69-0.24l-0.35-0.02
			c-3.13-0.18-5.53,2.21-6.18,4.55L170.83,165.33z M184.05,137.45c-0.08,0.09-0.17,0.2-0.27,0.35c-0.08,0.11-0.15,0.22-0.23,0.32
			c-3.71,4.55-7.42,9.1-11.12,13.66l-2.18,2.69c-1.02,1.26-2.04,2.52-3.07,3.77c-0.4,0.48-0.39,0.58-0.15,0.86
			c0.9,1.07,1.78,2.15,2.73,3.32l0.64,0.78l0.2-0.72c0.76-2.72,3.54-5.49,7.2-5.28l0.34,0.02c0.64,0.03,1.31,0.06,1.97,0.3
			c0.13,0.05,0.2,0.05,0.23,0.05c0-0.02,0.02-0.08,0.02-0.22l0.01-3.55c0.01-2.01,0.01-4.02,0.01-6.03
			c-0.01-1.41,0.57-2.33,1.75-2.82c1-0.41,1.69-1.12,1.94-1.98C184.63,140.93,184.63,139.12,184.05,137.45z M164.31,156.7
			c-0.33,0-0.64-0.18-0.93-0.54c-0.94-1.18-1.89-2.36-2.86-3.57l-1.51-1.88l0.54-0.28c0.58-0.3,1.09-0.28,1.51-0.26
			c0.12,0,0.23,0.01,0.34,0.01c3.15-0.11,5.78-2.51,6.11-5.59c0.35-3.28-1.72-6.2-4.93-6.96c-3.06-0.72-6.29,1.05-7.36,4.03
			c-0.14,0.4-0.24,0.84-0.35,1.3c-0.05,0.23-0.11,0.48-0.18,0.73l-0.12,0.47l-0.47-0.11c-0.68-0.16-1.01-0.6-1.25-0.93
			c-0.05-0.07-0.1-0.13-0.15-0.19c-1.31-1.61-2.62-3.23-3.93-4.85l-1.22-1.51c-0.14-0.17-0.27-0.34-0.4-0.52l-0.09-0.12
			c-0.19-0.25-0.52-0.65-0.33-1.18c0.24-0.67,0.9-0.67,1.21-0.68c0.06,0,0.12,0,0.18,0c0.25-0.02,0.51-0.02,0.76-0.02l5.42,0
			c8.48,0,16.96,0.01,25.45,0.03c0,0,0,0,0,0c0.12,0,0.25-0.02,0.39-0.03c0.53-0.06,1.41-0.16,1.77,0.7
			c0.3,0.71-0.26,1.28-0.63,1.66c-0.09,0.1-0.18,0.19-0.26,0.28c-4.32,5.33-8.65,10.65-12.98,15.97l-2.35,2.88
			c-0.14,0.17-0.29,0.34-0.42,0.52c-0.11,0.15-0.44,0.6-0.96,0.61C164.32,156.7,164.31,156.7,164.31,156.7z M160.65,151.16l0.64,0.8
			c0.98,1.21,1.93,2.39,2.87,3.58c0.08,0.1,0.13,0.14,0.16,0.16c0.01-0.02,0.07-0.07,0.16-0.2c0.15-0.2,0.31-0.39,0.47-0.58
			l2.33-2.86c4.33-5.32,8.66-10.64,12.98-15.97c0.09-0.11,0.2-0.23,0.32-0.35c0.15-0.15,0.46-0.48,0.42-0.57
			c-0.05-0.13-0.17-0.16-0.74-0.09c-0.18,0.02-0.37,0.04-0.51,0.04c-8.48-0.02-16.96-0.02-25.44-0.03l-5.43,0
			c-0.23,0-0.45,0-0.67,0.01c-0.08,0.01-0.17,0.01-0.25,0.01c-0.09,0-0.24,0-0.29,0.02c0.03,0.01,0.13,0.14,0.19,0.21l0.12,0.15
			c0.12,0.16,0.24,0.32,0.37,0.48l1.22,1.51c1.3,1.62,2.61,3.23,3.92,4.84c0.06,0.07,0.12,0.15,0.18,0.23
			c0.08,0.11,0.15,0.2,0.22,0.28c0.01-0.03,0.01-0.05,0.02-0.08c0.11-0.49,0.22-0.95,0.38-1.41c1.23-3.45,4.98-5.5,8.53-4.67
			c3.71,0.87,6.1,4.25,5.7,8.04c-0.38,3.57-3.42,6.36-7.07,6.48c-0.14,0.01-0.28,0-0.42-0.01
			C160.88,151.17,160.77,151.16,160.65,151.16z M161.08,148.45c-0.02,0-0.04,0-0.06,0c-2.34-0.03-4.26-2.06-4.27-4.52l0,0
			c-0.01-1.33,0.47-2.54,1.33-3.39c0.83-0.81,1.97-1.24,3.18-1.22c2.49,0.05,4.32,1.9,4.37,4.42c0.02,1.33-0.44,2.54-1.32,3.42
			C163.47,147.99,162.33,148.45,161.08,148.45z M161.17,140.31c-0.93,0-1.77,0.33-2.39,0.94c-0.67,0.66-1.04,1.61-1.03,2.67v0
			c0.01,1.92,1.48,3.51,3.28,3.53c0.98,0,1.91-0.35,2.57-1.01c0.68-0.69,1.05-1.64,1.03-2.69c-0.03-1.95-1.46-3.4-3.39-3.43
			C161.22,140.31,161.19,140.31,161.17,140.31z"/>
	</g>
	<g>
		<path d="M160.96,105.29c0.01-5.18,4.3-9.52,9.42-9.39c5.68,0.14,9.41,4.61,9.38,9.45c-0.04,5.18-4.28,9.41-9.44,9.4
			C165.15,114.74,160.95,110.5,160.96,105.29z M170.38,111.86c3.63-0.01,6.56-2.89,6.58-6.44c0.02-3.72-2.98-6.71-6.7-6.68
			c-3.61,0.03-6.4,2.89-6.4,6.56C163.85,109.1,166.62,111.87,170.38,111.86z"/>
		<path class="st3" d="M170.34,115.25c-0.01,0-0.01,0-0.02,0c-5.44-0.01-9.86-4.48-9.86-9.96l0,0c0-2.66,1.11-5.26,3.03-7.13
			c1.89-1.84,4.35-2.82,6.9-2.75c6.22,0.15,9.9,5.18,9.86,9.96C180.22,110.82,175.77,115.25,170.34,115.25z M160.96,105.29l0.5,0
			c-0.01,4.93,3.97,8.95,8.86,8.96c0.01,0,0.01,0,0.02,0c4.88,0,8.88-3.99,8.92-8.9c0.03-4.29-3.29-8.81-8.89-8.95
			c-2.29-0.06-4.48,0.82-6.17,2.47c-1.73,1.69-2.73,4.03-2.73,6.42L160.96,105.29z M170.35,112.36c-1.93,0-3.7-0.7-4.98-1.98
			c-1.3-1.3-2.01-3.1-2.01-5.08c0-3.93,3.03-7.03,6.9-7.06c0.02,0,0.04,0,0.07,0c1.91,0,3.7,0.74,5.05,2.08
			c1.36,1.36,2.1,3.17,2.09,5.1c-0.02,3.81-3.2,6.92-7.08,6.94C170.37,112.36,170.36,112.36,170.35,112.36z M170.32,99.24
			c-0.02,0-0.04,0-0.06,0c-3.31,0.03-5.91,2.69-5.91,6.06c0,1.71,0.61,3.26,1.72,4.37c1.09,1.09,2.61,1.69,4.28,1.69
			c0.01,0,0.02,0,0.03,0l0,0c3.34-0.01,6.07-2.68,6.08-5.94c0.01-1.66-0.63-3.22-1.8-4.39C173.51,99.88,171.97,99.24,170.32,99.24z"
			/>
	</g>
	<g>
		<path d="M154.23,114.31c3.79,0.02,6.84,3,6.85,6.72c0.02,3.89-3.09,6.98-6.99,6.96c-3.66-0.02-6.79-3.19-6.77-6.87
			C147.33,117.28,150.36,114.3,154.23,114.31z M154.18,125.09c2.28,0.02,4-1.67,4.01-3.94c0.01-2.25-1.73-4.08-3.9-4.12
			c-2.18-0.03-4.15,1.91-4.15,4.1C150.14,123.35,151.9,125.07,154.18,125.09z"/>
		<path class="st3" d="M154.13,128.5c-0.01,0-0.03,0-0.04,0c-3.95-0.02-7.28-3.4-7.27-7.37c0.01-1.98,0.77-3.83,2.14-5.19
			c1.39-1.38,3.3-2.12,5.28-2.12l0,0c4.04,0.02,7.33,3.26,7.35,7.22c0.01,2.01-0.76,3.89-2.17,5.3
			C158.02,127.73,156.14,128.5,154.13,128.5z M154.2,114.81c-1.74,0-3.35,0.65-4.54,1.83c-1.18,1.18-1.84,2.77-1.84,4.48
			c-0.01,3.37,2.92,6.35,6.28,6.37c1.77,0,3.39-0.66,4.61-1.87c1.22-1.21,1.88-2.84,1.87-4.58c-0.01-3.42-2.86-6.21-6.35-6.23
			C154.22,114.81,154.21,114.81,154.2,114.81z M154.22,125.59c-0.01,0-0.03,0-0.04,0c-2.55-0.02-4.54-1.98-4.54-4.45
			c0-1.18,0.51-2.37,1.41-3.25c0.89-0.88,2.08-1.4,3.25-1.35c2.43,0.04,4.4,2.11,4.39,4.62c0,1.23-0.46,2.35-1.29,3.17
			C156.57,125.14,155.45,125.59,154.22,125.59z M154.23,117.54c-0.89,0-1.79,0.39-2.48,1.07c-0.71,0.7-1.11,1.62-1.11,2.54
			c0,1.92,1.56,3.43,3.55,3.45l0,0c0.95,0.03,1.86-0.34,2.51-0.97c0.64-0.63,0.99-1.5,0.99-2.46c0.01-1.96-1.52-3.59-3.41-3.62
			C154.26,117.54,154.24,117.54,154.23,117.54z"/>
	</g>
	<g>
		<path d="M189.55,208.27c1.3,0.22,2.11,0.31,2.68-0.85c0.41-0.83,1.39-0.53,2.15-0.44c0.77,0.09,0.79,0.73,0.79,1.32
			c0.04,3.43,0.06,3.04-2.9,3.06c-1.73,0.01-3.46,0.02-5.19-0.01c-1.27-0.02-1.54-0.33-1.55-1.61c-0.01-1.26,0.38-2.36,1.25-3.29
			c0.79-0.85,1.69-1.56,2.66-2.19c0.48-0.31,0.97-0.63,1.32-1.1c0.35-0.45,0.49-0.95,0.11-1.44c-0.38-0.49-0.92-0.49-1.43-0.29
			c-0.33,0.13-0.63,0.38-0.89,0.63c-0.46,0.47-0.9,0.37-1.41,0.08c-1.59-0.89-1.66-1.59-0.24-2.79c1.7-1.43,4.08-1.65,6.02-0.54
			c2,1.14,2.55,3.73,1.16,5.56c-0.67,0.89-1.54,1.56-2.49,2.14C190.92,206.94,190.2,207.35,189.55,208.27z"/>
	</g>
</g>
</svg>
